<svg width="3500" height="3500" viewBox="0 0 3500 3500" fill="none" xmlns="http://www.w3.org/2000/svg">
<rect width="3500" height="3500" fill="#1E1E1E"/>
<g clip-path="url(#clip0_0_1)">
<path d="M0 1750V3500H1750H3500V1750V-5.21541e-05H1750H0V1750ZM3252.8 1210.4C3262.8 1213.2 3273.2 1231.6 3273.6 1248C3273.6 1258.4 3265.2 1279.6 3240.4 1328C3222 1364.4 3205.6 1395.6 3204 1398C3202.4 1400 3184.4 1434.4 3164 1474C3143.6 1513.6 3124 1551.2 3120 1558C3116 1564.4 3086.4 1620.4 3054 1682C3021.6 1743.6 2990.4 1802 2984.8 1812C2979.6 1822 2967.2 1844.4 2958 1862C2948.8 1879.6 2934.4 1906.4 2926 1922C2918 1937.2 2902.8 1965.2 2893.2 1984C2883.2 2002.8 2868.8 2029.6 2860.8 2044C2853.2 2058.4 2839.6 2083.6 2830.8 2100C2822 2116.4 2803.6 2150.8 2790 2176C2776.4 2201.2 2755.6 2240 2744 2262C2732.4 2284 2711.6 2322.8 2698 2348C2684.4 2373.2 2657.2 2423.6 2638 2460C2595.2 2540.4 2591.2 2546.4 2577.2 2549.2C2570.8 2550.4 2540 2556.8 2508 2563.6C2476 2570.4 2423.2 2581.6 2390 2588C2357.2 2594.4 2317.6 2602.4 2302 2606C2286.8 2609.2 2245.2 2617.2 2210 2624C2174.8 2630.8 2128.8 2640 2108 2644.4C2087.2 2648.8 2046.8 2656.8 2018 2662C1989.6 2667.2 1952.4 2674.4 1936 2678C1858.8 2694.4 1864.4 2694.4 1710 2678C1679.2 2674.4 1605.6 2667.2 1546 2662C1486.8 2656.4 1393.2 2647.6 1338 2642C1283.2 2636.4 1208.4 2629.2 1172 2626C1098.8 2619.2 1044.4 2614 990 2608C970.4 2605.6 933.2 2602 908 2600C795.6 2590.8 729.2 2583.6 718.4 2580C704 2575.2 680 2557.2 680 2551.6C680 2547.2 647.2 2457.6 619.2 2384C610 2360.8 600.8 2335.6 598 2328C586.4 2296.4 568 2247.6 552.4 2208C543.6 2184.8 530.4 2150.8 523.6 2132C498 2062 484.4 2025.6 476.8 2006C472.4 1994.8 463.6 1971.6 456.8 1954C450.4 1936.4 436.4 1899.6 426 1872C415.6 1844.4 400 1803.2 391.6 1780C383.2 1756.8 372.8 1728 368 1716C363.2 1704 356 1684.8 352 1674C328.8 1612.8 322 1594.8 310 1562C294 1517.6 272 1458.4 252.4 1406C226 1335.6 222.4 1322.8 226.8 1309.6C232 1294 253.2 1280 272 1280C286 1280 352.4 1300 412 1322C426.4 1327.2 464 1340.8 496 1352.4C559.2 1374.8 604.4 1391.2 700 1426C734 1438.4 779.2 1454.4 800 1462C820.8 1469.2 848.8 1479.2 862 1484C960.8 1520.4 1079.6 1562.8 1108 1572.4C1126.8 1578.4 1149.2 1586.4 1158 1589.6C1172.8 1594.8 1178.4 1594.4 1224 1585.6C1251.6 1580.4 1290.4 1573.6 1310 1570.4C1343.2 1564.8 1529.2 1528 1530.4 1526.8C1532.8 1524 1602.4 1435.6 1609.2 1426.8C1614 1420.4 1620 1413.2 1622 1410.8C1624.4 1408 1636.8 1392.4 1650 1376C1663.2 1359.6 1676 1344 1678.4 1341.6C1680.8 1338.8 1686.8 1331.6 1692.4 1325.6C1704.4 1311.2 1720 1304 1739.2 1304C1751.6 1304 1757.6 1307.2 1771.2 1320.4C1785.6 1334 1824.4 1383.2 1869.2 1444.8C1875.2 1453.2 1881.6 1460 1883.2 1460C1884.8 1460 1924 1452.8 1970 1444C2075.2 1423.6 2195.6 1400.8 2294 1382C2409.6 1360 2552 1332.8 2608 1322C2635.6 1316.4 2672.4 1309.6 2690 1306C2707.6 1302.8 2744.4 1295.6 2772 1290.4C2799.6 1284.8 2838.4 1277.6 2858 1274C2878 1270.4 2925.6 1261.2 2964 1254C3002.4 1246.4 3041.2 1239.2 3050 1238C3069.2 1234.8 3159.2 1217.6 3196 1210C3219.6 1205.2 3233.6 1205.2 3252.8 1210.4Z" fill="black"/>
<path d="M3160 1242C3132.4 1247.2 3070.8 1258.8 3022.8 1267.6C2974.8 1276.8 2918 1287.6 2896.8 1291.6C2875.6 1296 2842 1302.4 2822 1306C2802.4 1309.6 2764.4 1316.8 2738 1322C2711.6 1327.2 2666.8 1336 2638 1341.6C2609.6 1346.8 2548.4 1358.8 2502 1367.6C2456 1376.4 2384 1390 2342 1398C2300.4 1406 2253.6 1414.8 2238 1418C2222.8 1420.8 2189.2 1427.2 2164 1432C2138.8 1436.8 2100.4 1444 2079.2 1448.4C2057.6 1452.8 2030.8 1458 2019.2 1460C2007.6 1462 1972.8 1468 1942 1473.6C1911.2 1479.2 1882.8 1484 1879.2 1484C1872.4 1484 1850.8 1462.8 1834.4 1440.4C1818.4 1418 1778 1366 1773.2 1360.8C1770.4 1358 1768 1354 1768 1352C1768 1350 1761.6 1343.6 1754 1338C1731.6 1320.8 1721.6 1327.2 1674 1386.4C1652 1414 1629.6 1442.4 1624 1449.6C1618.4 1457.2 1600 1480.4 1583.2 1501.6C1566 1522.4 1552 1541.6 1552 1543.6C1552 1548 1539.2 1551.6 1490 1561.2C1428.8 1573.2 1285.6 1600 1228.8 1610L1171.6 1620.4L1138.8 1609.6C1108.4 1599.6 1074.8 1587.6 1040 1574.4C1032.4 1571.6 1014.4 1565.2 1000 1560C985.6 1555.2 948.8 1542 918 1531.2C887.2 1520 847.6 1506 830 1500C812.4 1493.6 782.8 1482.8 764 1476C745.2 1468.8 725.6 1461.6 720 1460C714.4 1458.4 677.6 1444.8 638 1430C598.4 1415.2 558.8 1400.8 550 1398C541.2 1394.8 510.8 1384.4 482 1374C304.8 1310.8 281.2 1303.2 267.6 1306C243.6 1311.2 244.4 1316.4 286 1424C302.4 1466 332 1547.2 332 1549.2C332 1550.8 340 1572 349.6 1596.8C359.2 1621.6 384.8 1688.8 406 1746C458 1885.2 457.2 1883.6 477.2 1936C487.2 1961.2 504.4 2007.2 515.6 2038C527.2 2068.8 543.6 2112.8 552.4 2136C576.4 2198.8 592 2240.4 598 2256C600.8 2263.6 610 2288.8 618.8 2312C627.6 2335.2 639.6 2367.6 645.6 2384C651.6 2400.4 659.2 2420.4 662 2428C665.2 2435.6 676 2464.8 686.4 2492.8C700.8 2531.2 708 2545.6 715.6 2550.8C725.6 2557.2 807.2 2566.8 1058 2590C1097.6 2593.6 1156 2599.2 1188 2602.4C1288.8 2612.8 1324.4 2616 1388 2622C1496.4 2632 1576 2639.6 1595.2 2642C1624 2644.8 1724 2654.8 1782 2660.4C1866.4 2668.4 1856.4 2669.6 2010 2638.4C2047.6 2630.8 2093.2 2622 2112 2618.4C2130.8 2614.8 2153.2 2610.4 2162 2608.4C2170.8 2606.4 2188 2602.8 2200 2600.4C2212 2598 2272.4 2585.6 2334 2573.6C2395.6 2561.2 2454 2549.6 2464 2547.6C2525.2 2536.8 2573.6 2524 2577.6 2517.6C2583.2 2508.4 2609.2 2460.4 2636 2410C2647.6 2388 2658.4 2368 2660 2366C2661.6 2363.6 2675.2 2338.4 2690 2310C2704.8 2281.2 2728.4 2237.2 2742 2212C2782.4 2137.6 2796 2112 2816 2074C2826.4 2054 2839.6 2030 2844.8 2020C2850.4 2010 2864.4 1984 2876 1962C2896.8 1922.8 2973.6 1778.8 3005.2 1720C3023.6 1685.6 3045.6 1644.4 3070 1598C3112.4 1517.2 3134 1476 3146 1454C3153.2 1440.8 3178.4 1392 3202 1346C3225.6 1299.6 3246.8 1260.4 3248.4 1258C3258.8 1246.8 3245.2 1232 3224.8 1232.4C3216.8 1232.4 3187.6 1236.8 3160 1242ZM3152 1294.4C3152 1297.6 3136 1316 3088.4 1367.6C3067.2 1390.4 3048.4 1411.2 3046 1414C3044 1416.4 3030.4 1430.8 3016 1446C3001.6 1461.6 2969.2 1496.4 2944 1524C2918.8 1551.2 2887.2 1585.2 2874 1599.2C2860.8 1613.6 2845.6 1630 2840 1635.6C2772.4 1708.8 2732.4 1751.6 2706 1780C2688.4 1798.8 2652.4 1837.6 2626 1866C2572.8 1923.6 2539.2 1960 2499.6 2002C2485.2 2017.2 2464 2040.4 2452 2052.8C2436.8 2069.6 2428 2076 2420.4 2076C2408 2076 2374 2065.2 2328 2046.8C2309.2 2039.6 2289.2 2032 2283.6 2030.8C2274 2028.4 2234.4 1979.2 2168 1888C2145.2 1856.8 2020 1689.6 1996 1658.8C1983.6 1642.8 1968.4 1622 1961.6 1612C1954.8 1602 1940.8 1582 1930.8 1567.6C1913.6 1542.8 1907.6 1528 1915.2 1528C1916.8 1528 1939.6 1523.2 1966 1517.6C1992.4 1512.4 2029.2 1505.2 2048 1501.6C2100 1492.4 2143.2 1484.4 2172 1478C2186.4 1474.8 2214.4 1469.2 2234 1465.6C2269.6 1459.2 2386.4 1436.8 2524 1410C2562.4 1402.4 2633.6 1388.8 2682 1380C2730.4 1370.8 2787.2 1360 2808 1356C2828.8 1352 2866.8 1344.8 2892 1340C2917.2 1335.2 2960.4 1326.8 2988 1321.6C3015.6 1316 3052.4 1309.2 3070 1306C3087.6 1302.8 3110 1298.4 3120 1296.4C3142.8 1292 3152 1291.2 3152 1294.4ZM396 1392.4C432.4 1406 479.2 1422.8 500 1430C520.8 1437.2 543.6 1445.2 550 1448C564.8 1454 570.8 1456.4 604 1468C618.4 1473.2 656 1486.4 688 1498.4C720 1510 766.8 1526.8 792 1536C817.2 1545.2 858 1560 882 1568.8C906.4 1577.6 944.8 1591.6 968 1600C991.2 1608.4 1038 1625.6 1072 1638C1106 1650.4 1148.4 1666 1166 1672C1200 1684.4 1207.2 1686.8 1484 1788C1582 1823.6 1682 1860 1706 1868.8C1730.4 1877.2 1767.2 1890.8 1788 1898.4C1808.8 1906 1843.2 1918.4 1864 1926C1884.8 1933.6 1916.4 1945.2 1934 1952C1951.6 1959.2 1971.6 1966 1978 1968C1984.8 1970 2002.8 1976 2018 1982C2049.2 1993.6 2122.4 2020.8 2144 2028.4C2151.6 2030.8 2161.6 2034.4 2166 2036.4C2170.4 2038 2197.6 2047.6 2226 2058C2305.2 2086.8 2364 2109.6 2364 2112C2364 2113.2 2295.2 2130.8 2210.8 2151.6C2126.8 2172.4 2030 2196.4 1996 2205.2C1962 2213.6 1926.8 2222.4 1918 2224C1909.2 2226 1876.8 2234 1846 2241.6C1815.2 2249.2 1748.8 2265.6 1698 2278C1647.6 2290.4 1578 2307.6 1544 2316.4C1510 2324.8 1480.4 2332 1478 2332C1476 2332 1446 2339.2 1412 2347.6C1378 2356.4 1308.8 2373.6 1258 2385.6C1207.6 2398 1148.8 2412.4 1128 2418C1107.2 2423.2 1077.6 2430.4 1062 2434C1046.8 2437.2 1025.2 2442.8 1014 2445.6C1003.2 2448.8 980.4 2454.4 964 2458.4C947.6 2462 898 2474 854 2484.8C810 2495.6 768 2504.8 760.8 2505.2C748 2506 747.2 2505.2 735.6 2476C728.8 2459.6 720.8 2440.4 718 2434C715.2 2427.2 704.4 2400.4 694.4 2374C661.6 2286.8 635.6 2218.4 621.6 2184C614.4 2165.2 599.2 2125.6 588 2096C576.8 2066.4 560.4 2023.2 551.2 2000C542.4 1976.8 533.6 1953.6 531.6 1948C530 1942.4 524.8 1928 520 1916C510.4 1892 494.4 1849.6 456.4 1748C442.8 1711.6 429.2 1675.6 426 1668C409.6 1625.2 399.2 1597.6 384 1558C375.2 1533.6 365.2 1507.6 362 1500C348 1465.2 316 1376.4 316 1372.4C316 1364.4 329.2 1368 396 1392.4ZM1721.6 1414.8C1722.4 1418.8 1725.6 1435.6 1728 1452C1734.8 1494.8 1737.2 1508.4 1782 1750C1798 1836.4 1800.8 1852 1799.2 1852C1796.4 1852 1613.2 1787.6 1560 1768C1541.2 1761.2 1521.6 1754 1516 1752C1495.2 1745.6 1468 1728.8 1468 1728.8C1468 1726.8 1474 1718.4 1481.2 1709.6C1488.4 1701.2 1496.8 1690 1500 1685.2C1503.2 1680.4 1522.8 1655.2 1543.2 1629.2C1592.4 1566.4 1591.6 1567.6 1624.8 1524.4C1640.8 1504 1658.4 1480.8 1664 1473.6C1703.2 1421.2 1714 1408 1716.4 1408C1718 1408 1720.4 1411.2 1721.6 1414.8ZM3109.2 1424.8C3106.8 1427.6 3093.2 1452.4 3079.2 1480C3064.8 1507.6 3046.8 1541.6 3039.2 1556C3015.2 1600.4 2926.8 1765.6 2887.2 1840C2878.4 1856.4 2864 1883.6 2855.2 1900C2846.4 1916.4 2831.6 1944.4 2822.4 1962C2812.8 1979.6 2799.6 2004.8 2792.4 2018C2775.6 2048.4 2754.4 2088 2730 2134C2708.8 2174.4 2687.6 2213.2 2666.4 2252C2658.4 2266.4 2645.2 2290.4 2637.6 2306C2629.6 2321.2 2621.2 2337.6 2618.4 2342C2616 2346.4 2604.4 2367.6 2592.8 2389.2C2581.2 2410.4 2570 2428 2568.4 2428C2566.4 2428 2564 2424 2562.8 2418.8C2561.6 2414 2554.8 2394.8 2548 2376C2540.8 2357.2 2533.6 2336.4 2532 2330C2530.4 2323.2 2522.4 2300 2514.4 2278C2506.4 2256 2498.4 2231.6 2496.4 2224C2494.4 2216.4 2485.2 2188.8 2476.4 2162.8C2467.2 2136.8 2460 2113.6 2460 2111.6C2460 2109.6 2467.6 2100.4 2477.2 2090.8C2486.4 2081.2 2511.2 2054.8 2532 2031.6C2552.8 2008.8 2575.6 1984.4 2582 1978C2588.8 1971.2 2612.8 1945.2 2636 1920C2659.2 1894.8 2682.4 1869.6 2688 1863.6C2724.8 1824.8 2745.6 1802.4 2770 1776C2784.8 1759.6 2811.2 1731.6 2827.6 1714C2862.8 1676.8 2942.8 1590.8 2980.4 1550C2994.4 1534.8 3020.4 1506.8 3038.4 1488C3056 1469.2 3077.6 1446.4 3086 1436.8C3094 1427.6 3103.6 1420 3106.8 1420C3111.2 1420 3112 1421.6 3109.2 1424.8ZM1794 1470.8C1798.4 1476.8 1808.8 1489.6 1817.2 1499.6C1836.4 1523.2 1834 1520 1868.4 1565.6C1884.8 1587.2 1904 1612 1910.8 1621.2C1918 1630.4 1930.8 1647.2 1938.8 1658.8C1947.2 1670 1977.6 1710.4 2006 1748.4C2034.8 1786.8 2067.2 1830.4 2078.8 1846C2090.4 1861.2 2106.4 1882.4 2114.4 1892.8C2122.4 1903.2 2131.2 1915.2 2133.6 1919.6C2136 1923.6 2147.6 1939.2 2159.2 1954C2188.8 1992.4 2187.6 1994.4 2144 1978.4C2129.6 1973.6 2106.4 1965.2 2092 1960C1932.8 1904 1858 1876 1854 1870.4C1851.6 1867.2 1845.6 1841.6 1840.4 1813.2C1835.2 1785.2 1826 1734.8 1819.2 1702C1812.8 1668.8 1804.8 1626.8 1802 1608C1798.8 1589.2 1791.6 1550 1786 1520.4C1780.4 1490.8 1776 1465.2 1776 1463.2C1776 1456.4 1786.4 1460.4 1794 1470.8ZM1487.2 1626C1480 1636.4 1470 1650.4 1465.2 1657.6C1460.4 1664.4 1447.6 1680 1436.8 1692L1416.8 1714L1375.6 1699.2C1292.8 1670 1266 1659.6 1262.8 1656.4C1258.4 1652 1264 1650.8 1353.2 1634C1393.2 1626.4 1442.4 1616.8 1462 1612.8C1482 1608.8 1498.8 1605.6 1499.2 1606.4C1500 1606.8 1494.8 1616 1487.2 1626ZM2460.4 2252C2506.8 2391.2 2528 2460.8 2528 2474.4C2528 2486.8 2528 2486.8 2489.2 2495.2C2382.4 2518.8 2041.6 2587.6 1987.2 2596.4C1970 2599.2 1954.8 2600 1953.2 2598.4C1951.6 2596.8 1957.2 2589.2 1966 2581.2C1974.8 2573.6 1996.4 2553.6 2014 2536.8C2066 2487.6 2096 2459.6 2130 2428C2147.6 2412 2174.8 2386.8 2190 2372.4C2205.6 2358 2240 2326 2266 2301.6C2292.4 2277.6 2338.4 2234.8 2368 2206.8C2397.6 2179.2 2423.6 2156.8 2425.6 2157.2C2427.6 2158 2443.2 2200.4 2460.4 2252ZM2344 2169.6C2344 2172.8 2337.2 2181.2 2329.2 2188.4C2320.8 2195.6 2291.6 2222.4 2264 2248C2236.4 2274 2206 2302.4 2196 2311.2C2186 2320 2168.8 2336 2157.6 2346.8C2146.4 2357.2 2117.6 2384 2093.6 2406C2069.6 2428 2035.6 2459.6 2018 2476C2000.4 2492.4 1963.2 2526.8 1936 2552C1908.8 2577.2 1881.2 2602.8 1874.8 2608.8C1862 2621.6 1852.8 2622.4 1801.6 2616.4C1768 2612 1679.6 2603.2 1604 2596C1578.8 2594 1512 2587.2 1456 2581.6C1400 2576 1316.4 2568 1270 2564C1177.6 2555.2 1122 2550 1064 2544C1043.2 2541.6 998.4 2537.2 964.4 2534C905.2 2528.4 896 2526.8 900.8 2521.6C903.6 2518.8 1006 2492.8 1262 2430C1339.2 2411.2 1418.4 2391.6 1438 2386.4C1458 2381.2 1484 2374.8 1496 2372C1508 2369.2 1549.6 2359.2 1588 2349.6C1626.4 2340 1665.2 2330.4 1674 2328.4C1682.8 2326.4 1715.2 2318.4 1746 2310.8C1776.8 2302.8 1840 2287.2 1886 2276C1932.4 2264.8 1987.2 2251.2 2008 2246C2028.8 2240.4 2094.8 2224.4 2154 2210C2213.6 2195.6 2278.4 2179.6 2298 2174C2341.2 2162.8 2344 2162.4 2344 2169.6Z" fill="black"/>
<path d="M3164 1218.4C3138.8 1223.6 3091.2 1232.4 3058 1238C3025.2 1243.6 2990.8 1250 2982 1252C2973.2 1254 2936.4 1261.6 2900 1268C2863.6 1274.8 2812.4 1284.8 2786 1290C2759.6 1295.2 2722 1302.4 2702 1306C2682.4 1309.6 2639.2 1317.6 2606 1324.4C2528.8 1339.6 2477.2 1349.6 2420 1360C2394.8 1364.8 2356.8 1372 2336 1376C2315.2 1380 2277.2 1387.2 2252 1392C2226.8 1396.8 2183.6 1405.2 2156 1410.4C2128.4 1416 2072 1426.8 2030 1434.4C1988.4 1442 1942 1450.8 1927.2 1454C1887.2 1462.8 1879.6 1462 1868 1446.4C1862.4 1439.2 1844.8 1415.6 1828.4 1393.6C1764 1308.4 1754.4 1300.4 1722 1308.4C1708 1312 1700.8 1317.6 1681.6 1341.2C1652 1376.4 1599.2 1443.2 1560.4 1493.6C1542.4 1516.8 1528 1532 1523.6 1532C1519.6 1532 1476.4 1540 1427.2 1549.6C1342.8 1566 1258.8 1582 1199.6 1592.4C1174.8 1596.8 1171.2 1596.4 1143.6 1586.8C1127.2 1581.2 1107.6 1574.4 1100 1571.6C1086.8 1567.2 1067.6 1560.4 938 1514C909.6 1504 877.2 1492.4 866 1488.4C855.2 1484 832.4 1476 816 1470C755.2 1448.4 721.2 1436.4 688 1424C669.2 1417.2 616.4 1398 570 1381.6C524 1364.8 477.2 1348 466 1344C429.2 1330.4 378.4 1312.8 327.6 1296C282 1280.8 275.6 1280 260.8 1284C242 1288.8 228 1304.4 228 1319.6C228 1332.4 239.6 1370 253.2 1402C258.8 1415.2 267.2 1437.6 272 1452C276.4 1466.4 284.8 1488.8 290 1502C295.2 1515.2 316.8 1572.8 338 1630C359.2 1687.2 378.8 1740.4 382 1748C387.2 1760.8 413.6 1830.8 426 1864C432 1880.4 449.6 1928 486 2024C500.4 2062.4 516.8 2105.6 522 2120C527.2 2134.4 539.6 2166.8 549.2 2192C587.6 2292.8 653.2 2468.4 670.4 2518C684.8 2559.2 687.6 2563.2 706.4 2572C723.2 2580.4 738 2582.4 900 2598C936.4 2601.2 1002 2607.6 1046 2612C1135.2 2620.8 1184.4 2625.6 1276 2634C1310 2637.2 1365.2 2642.4 1398 2646C1431.2 2649.6 1476.8 2654 1500 2656C1565.2 2661.6 1664.4 2671.2 1728 2678C1861.6 2692.4 1856 2692.4 1907.2 2681.6C1952 2672 1998 2663.2 2036 2656.4C2046 2654.4 2092 2645.6 2138 2636.4C2184.4 2627.2 2289.6 2606 2372 2589.2C2574.8 2548.8 2584.4 2546.4 2594 2534C2598.8 2528.4 2612.8 2504 2625.6 2479.2C2648.4 2434.8 2666.4 2401.2 2688 2362C2694 2350.8 2708.4 2324 2720 2302C2731.6 2280 2746 2252.8 2752 2242C2758 2230.8 2771.2 2205.6 2782 2186C2792.4 2166 2804.4 2144.4 2808 2138C2812 2131.2 2828.8 2098.8 2846 2066C2863.2 2032.8 2878.4 2004 2880.4 2002C2882 1999.6 2890.8 1983.6 2900 1966C2956 1860.8 2977.2 1820.8 2992.8 1792C3000.4 1777.6 3016.4 1748 3028 1726C3039.6 1704 3052 1680.4 3056 1674C3059.6 1667.2 3074 1640.4 3088 1614C3140 1514 3161.6 1473.2 3173.2 1452C3219.2 1367.2 3272 1258.4 3272 1249.2C3272 1231.6 3258.8 1213.6 3244 1210.4C3224.8 1206.8 3214.8 1207.6 3164 1218.4ZM3250.8 1236C3251.6 1236 3252 1240.4 3252 1245.6C3252 1254 3216.8 1326.4 3170 1414C3132 1485.2 3120 1508 3098 1550C3085.2 1574 3063.2 1616.4 3048.8 1644C3034.4 1671.6 3018.4 1700.8 3013.2 1708.8C3008 1717.2 3004 1724.8 3004 1726C3004 1728 2969.2 1794 2929.2 1868C2901.2 1919.6 2886 1947.6 2871.2 1976C2847.2 2020.8 2792.8 2122.8 2778 2150C2770.8 2163.2 2757.6 2188 2748.4 2204.8C2739.6 2222 2724.4 2250 2715.2 2266.8C2706.4 2284 2672.8 2346.4 2641.2 2405.6C2609.6 2464.8 2581.2 2516.8 2577.6 2520.4C2574 2524.4 2560.8 2529.6 2548.4 2532C2536 2534.4 2515.2 2538.8 2502 2542C2488.8 2544.8 2463.6 2550 2446 2553.6C2414.4 2560 2400 2563.2 2276 2587.6C2242 2594.4 2201.6 2602.4 2186 2606C2170.8 2609.2 2142.8 2614.8 2124 2618C2105.2 2621.6 2059.6 2630.8 2022 2638.4C1873.6 2668.8 1868.4 2669.2 1804 2664C1772 2661.6 1720.8 2656.8 1690 2653.6C1619.6 2646.4 1571.2 2641.6 1490 2634C1454.8 2630.4 1399.2 2625.2 1366 2622C1333.2 2618.8 1286.4 2614.4 1262 2612C1238 2610 1212.4 2607.2 1205.6 2606C1198.8 2604.8 1172 2602.4 1145.6 2600C1119.6 2598 1079.2 2594.4 1056 2592.4C1032.8 2590 993.2 2586 968 2584C942.8 2581.6 899.6 2577.2 872 2574C844.4 2571.2 806.8 2567.6 788 2566C742 2562.8 713.6 2556.8 707.6 2549.6C702.4 2543.2 698 2532.4 672 2460C663.6 2436.8 653.6 2410.8 650 2402C646.4 2393.2 638.8 2374.4 634 2360C617.6 2314 600.4 2266.8 584.4 2226C575.6 2204 560.4 2163.6 550 2136C530.8 2084 504.4 2014.4 482 1956C474.8 1937.2 450.4 1872.4 428.4 1812C406 1751.6 383.2 1690.4 377.6 1676C372 1661.6 364.8 1643.6 362 1636C358.8 1628.4 344.4 1589.6 330 1550C315.6 1510.4 301.2 1471.6 298 1464C294.8 1456.4 284.8 1429.2 276 1404C266.8 1378.8 256.8 1351.2 253.6 1342.8C246 1322.4 246.4 1313.2 255.6 1308C273.2 1298.8 294.4 1304.4 430 1352.8C460.8 1364 511.2 1382 542 1393.2C638 1427.2 680.4 1442.8 728 1460C780.8 1479.6 850.8 1504.4 914 1527.2C938.4 1535.6 973.2 1548.4 992 1555.2C1057.2 1578.8 1114.4 1598.8 1143.6 1608L1172.8 1617.2L1225.6 1608.4C1254.4 1603.6 1316 1592.4 1362 1583.6C1408.4 1574.8 1456 1566 1468 1563.6C1509.6 1556 1548 1546.4 1548 1544C1548 1541.2 1545.2 1544.8 1635.6 1431.2C1675.6 1381.2 1712 1337.6 1716.8 1334.4C1726 1328 1738.8 1326.4 1749.2 1330.4C1752.8 1331.6 1774 1357.2 1796.8 1387.2C1819.6 1417.2 1847.2 1451.2 1858 1462.8L1878 1484L1942 1472C1977.2 1465.2 2038.4 1453.6 2078 1446C2117.6 1438.4 2166.4 1429.2 2186 1426C2206 1422.4 2233.6 1417.2 2248 1414C2269.2 1409.2 2442 1376.4 2586 1349.6C2603.6 1346.4 2626 1342 2635.6 1339.6C2645.2 1337.6 2668.4 1333.2 2687.6 1330C2706.4 1326.8 2733.6 1321.6 2748 1318.4C2762.4 1315.2 2789.2 1310 2808 1306.4C2826.8 1302.8 2864.4 1296 2892 1290.4C2919.6 1285.2 2959.2 1277.6 2980 1274C3000.8 1270.4 3036 1263.6 3058 1259.2C3152.8 1240 3226 1229.2 3238 1232.8C3244.4 1234.4 3250.4 1236 3250.8 1236Z" fill="white"/>
<path d="M1700.4 1428.8C1691.2 1440.4 1681.6 1452.8 1678.8 1456C1676 1459.2 1669.6 1468.4 1664 1476C1658.8 1483.6 1643.6 1503.6 1630 1520C1616.8 1536.4 1603.2 1554 1600 1558.8C1596.8 1563.6 1580.8 1584.4 1565.2 1604.8C1470 1727.2 1474 1733.2 1474 1733.2C1495.6 1745.2 1794 1851.2 1797.6 1848C1798.4 1846.8 1796.8 1833.2 1794 1818C1788.8 1792.4 1776.8 1726.4 1762 1646C1758.8 1628.4 1750.8 1586 1744.4 1552C1738 1518 1729.6 1472 1726 1450C1722.4 1428 1718.8 1409.6 1718 1408.8C1717.6 1408 1709.6 1417.2 1700.4 1428.8Z" fill="white"/>
<path d="M3128 1296.4C3118 1298.4 3098.4 1302 3084 1304.4C3069.6 1306.8 3027.6 1314.8 2990 1322C2952.8 1329.6 2901.2 1339.2 2876 1344C2850.8 1348.4 2817.6 1354.8 2802 1358C2742.4 1369.6 2668 1384 2624 1392C2598.8 1396.8 2552 1405.6 2520 1412C2488 1418.4 2432.4 1429.2 2396 1436C2359.6 1442.8 2317.6 1450.8 2302 1454C2286.8 1457.2 2226.4 1469.2 2168 1480C1988.4 1514 1918 1528.8 1914.4 1532.4C1910.8 1535.6 1934 1572 1968.4 1618C1974.8 1626.8 1984.4 1639.6 1989.2 1646.8C1994 1653.6 2008.4 1672.8 2021.2 1689.6C2039.6 1714.4 2078.4 1766 2092.8 1786C2094.4 1788 2103.6 1800 2112.8 1812C2122.4 1824 2133.6 1839.2 2137.6 1845.6C2141.6 1852 2149.6 1862 2155.2 1868.4C2160.8 1874.8 2167.2 1883.2 2169.6 1887.6C2172 1892 2188.8 1915.2 2206.8 1938.8C2224.8 1962.4 2247.6 1992.4 2256.8 2004.8C2268.4 2020 2278 2028.4 2286 2030C2292.4 2031.6 2314.8 2039.6 2336 2047.6C2396.4 2071.2 2401.2 2072.8 2415.2 2074.8C2425.6 2076.4 2430.4 2074.8 2437.2 2067.6C2441.6 2062.4 2468 2033.6 2496 2004C2523.6 1974.4 2548 1948 2550 1945.6C2552.4 1943.2 2565.6 1928.4 2580 1913.2C2594.4 1898.4 2626 1864.4 2650 1838.4C2674.4 1812 2697.6 1786.8 2702 1782C2706.4 1777.6 2721.6 1761.2 2736 1745.6C2750.4 1730.4 2775.6 1703.2 2792 1685.6C2828.8 1646 2904.8 1564.4 2942 1524C2957.2 1507.6 2970.8 1493.2 2972 1492C2973.2 1490.8 2984 1479.2 2996 1466C3008 1452.8 3038.8 1419.6 3064.4 1392C3143.2 1307.6 3147.6 1302 3148 1296.8C3148 1294.4 3147.6 1292 3147.2 1292.4C3146.4 1292.8 3138 1294.4 3128 1296.4Z" fill="#BCBCBC"/>
<path d="M1408 1624C1365.2 1632.8 1315.2 1642.8 1296.8 1646.4C1275.6 1650.8 1264.8 1654.4 1267.2 1656.8C1269.6 1659.2 1285.2 1665.6 1302.4 1672C1320 1678 1352 1689.6 1374 1697.6C1396 1705.6 1416 1711.2 1418.8 1710.4C1421.2 1709.2 1430.8 1698.8 1439.6 1687.2C1448.4 1675.6 1464.8 1654.4 1475.6 1640C1486.8 1625.6 1496 1612.8 1496 1610.8C1496 1606.8 1494 1606.8 1408 1624Z" fill="#BCBCBC"/>
<path d="M2290 2177.6C2270.4 2182.8 2229.6 2192.8 2200 2199.6C2170.4 2206.8 2137.2 2215.2 2126 2218C2115.2 2221.2 2068.4 2232.8 2022 2244C1976 2255.2 1910 2271.6 1875.6 2280C1841.6 2288.8 1805.6 2297.6 1795.6 2299.6C1786 2301.6 1752 2309.6 1720 2317.6C1688 2326 1643.2 2337.2 1620 2342.8C1596.8 2348.4 1569.2 2355.2 1558 2358.4C1547.2 2361.2 1496.8 2374 1446 2386C1395.6 2398.4 1336.8 2412.8 1316 2418C1295.2 2423.2 1192.8 2448.8 1089.2 2474.4C922.4 2515.6 880.4 2528 907.2 2528C911.6 2528 950.4 2531.6 994.4 2536C1038 2540.8 1095.6 2546 1122 2548C1148.4 2550.4 1183.6 2553.6 1200 2555.6C1216.4 2558 1243.6 2560.8 1260 2562C1276.4 2563.6 1315.2 2567.2 1346.4 2570.4C1400.4 2575.6 1480 2583.2 1574 2592C1598.4 2594 1635.2 2597.6 1656 2600C1676.8 2602 1722 2606.8 1756 2610C1790 2613.6 1827.6 2617.2 1839.2 2618.8L1860 2621.2L1883.2 2599.6C1895.6 2587.6 1930.4 2555.6 1960 2528C1989.6 2500.4 2025.6 2467.2 2040 2454C2054.4 2440.4 2077.6 2418.8 2092 2406C2106 2392.8 2129.6 2371.2 2144 2358C2158.4 2344.4 2180.8 2323.6 2194 2311.6C2302.8 2211.2 2340 2175.2 2340 2171.2C2340 2166.4 2329.6 2167.6 2290 2177.6Z" fill="#8B8B8B"/>
<path d="M316 1370C316 1372 347.6 1458.4 362 1496C365.2 1503.6 377.6 1536.8 390 1570C402.4 1602.8 414 1633.6 415.6 1638C417.6 1642.4 429.6 1674 442 1708C454.8 1742 472 1787.2 480 1808C488.4 1828.8 504.4 1871.2 516 1902C538 1961.2 539.6 1964.8 561.2 2022C575.6 2059.6 593.2 2105.2 620 2175.2C628.4 2197.6 642.8 2234.8 651.2 2257.2C660 2279.6 676.4 2322.4 688 2352C747.6 2507.6 748.4 2508.8 759.6 2506C765.2 2504.4 780.8 2500.8 794 2498C807.2 2495.2 840 2487.2 866.8 2480.4C894 2473.2 923.6 2466.4 932.8 2464.4C942.4 2462.4 976 2454 1008 2446C1040 2438 1099.2 2423.6 1140 2413.6C1322.4 2369.2 1347.2 2363.2 1368 2358C1380 2355.2 1400.8 2349.6 1414 2346C1427.2 2342.4 1449.6 2337.2 1464 2334.4C1478.4 2331.2 1518.8 2321.6 1554 2312.8C1589.2 2303.6 1656 2287.2 1702 2276C1748.4 2264.8 1803.2 2251.2 1824 2246C1844.8 2240.4 1910.8 2224.4 1970 2210C2029.6 2195.6 2087.2 2181.2 2098 2178.4C2109.2 2175.2 2129.6 2170 2144 2166.4C2253.2 2140.4 2353.6 2115.6 2357.2 2113.2C2360.8 2111.2 2350 2105.6 2320 2094C2294.4 2084.4 2214.4 2055.2 2172 2039.6C2148.8 2031.2 2104.8 2015.2 2074 2004C1992.8 1974.4 1936.4 1953.6 1882 1934C1855.6 1924.4 1814.4 1909.6 1790 1900.8C1766 1892 1726.4 1877.6 1702 1868.8C1678 1860 1622.8 1840 1580 1824C1537.2 1808.4 1474 1785.6 1440 1773.2C1406 1761.2 1363.6 1745.6 1346 1739.2C1294.8 1720 1281.2 1714.8 1140 1663.6C962.8 1599.2 869.2 1565.6 790 1536.8C766 1528 718 1510.4 684 1498C650 1485.6 607.6 1470.4 590 1464C572.4 1458 538.4 1445.6 514 1436.8C328.4 1368.4 316 1364.4 316 1370Z" fill="#EBEBEB"/>
<path d="M3071.6 1455.2C3041.2 1486.8 2959.2 1574 2933.2 1602.4C2927.6 1608.8 2900.4 1638.4 2872.4 1668C2844.8 1697.6 2808.8 1736.4 2792.4 1754C2776 1771.6 2750.8 1798.8 2736.4 1814C2722 1829.6 2687.6 1866.4 2660 1896C2632.4 1925.6 2596.4 1964 2580 1982C2538.4 2026.4 2510.8 2056.4 2506 2062C2504 2064.4 2492.4 2076.4 2480.8 2088.4L2459.6 2110.4L2472 2146.4C2488.4 2193.2 2493.6 2209.6 2501.6 2236C2505.6 2248 2512.8 2269.6 2518 2284C2523.2 2298.4 2530.8 2321.6 2535.2 2336C2540 2350.4 2548 2374.4 2553.6 2390C2559.6 2405.2 2565.2 2420.4 2566.4 2423.6C2567.6 2427.6 2573.2 2421.2 2582 2406.4C2589.6 2394 2596 2382.8 2596 2381.6C2596 2380.4 2604 2366 2613.2 2348.8C2622.8 2332 2642.8 2294.4 2658 2266C2688.8 2207.2 2710 2167.6 2720 2150C2723.6 2143.2 2735.6 2121.6 2746 2102C2769.2 2058.4 2789.6 2020 2811.2 1980C2836 1933.6 2919.6 1777.2 2936 1746C2944.4 1730.4 2957.2 1706.4 2964.8 1692C2972.4 1677.6 2987.2 1649.6 2998 1630C3008.4 1610 3022 1584.8 3028 1574C3034 1562.8 3047.6 1537.6 3058 1518C3068.4 1498 3084 1468.8 3092.8 1452.8C3101.6 1436.4 3108 1422.4 3106.8 1421.6C3106 1420.8 3090.4 1436 3071.6 1455.2Z" fill="#2C2C2C"/>
<path d="M2407.6 2173.2C2399.6 2180 2373.6 2204 2350 2226C2326.4 2248 2302.4 2270.4 2296.4 2275.6C2290.8 2280.8 2264.4 2305.2 2238 2329.6C2211.6 2354 2177.6 2385.6 2162 2400C2146.8 2414.4 2131.2 2428.8 2128 2432C2124.4 2435.2 2098.4 2459.6 2070 2486C1974.8 2574.8 1954 2595.2 1956.4 2597.6C1958.4 2599.6 2026 2588.4 2110 2572C2118.8 2570 2140.4 2566 2158 2562.8C2175.6 2559.2 2199.2 2554.8 2210 2552.4C2221.2 2550 2248 2544.4 2270 2540C2292 2535.2 2326.4 2528.4 2346 2524C2366 2520 2405.6 2511.6 2434 2506C2518 2488.4 2528 2485.2 2528 2474.8C2528 2458 2431.6 2163.2 2425.2 2161.2C2423.6 2160.4 2415.6 2166 2407.6 2173.2Z" fill="#4D4D4D"/>
<path d="M1776 1464.8C1776 1467.6 1778 1477.2 1780 1486C1782 1494.8 1788.4 1528 1794 1560C1800 1592 1809.6 1644.8 1816 1678C1822.4 1710.8 1831.2 1758.8 1836 1784C1852.8 1876.8 1850.4 1870.4 1873.6 1879.6C1895.6 1888.4 1938.8 1904.4 2000 1926C2020.8 1933.2 2053.2 1945.2 2072 1952C2090.8 1959.2 2111.6 1966.4 2118 1968C2124.8 1970 2140 1975.2 2152 1979.6C2178.8 1990 2181.2 1990 2176.4 1980.8C2173.2 1974.4 2006.4 1750 1974 1708C1945.6 1671.2 1885.6 1590.8 1879.2 1581.2C1875.6 1575.6 1871.2 1569.6 1869.2 1568.4C1867.6 1567.2 1860.8 1558.8 1854.4 1550C1827.6 1513.6 1783.2 1460 1779.6 1460C1777.6 1460 1776 1462.4 1776 1464.8Z" fill="#747474"/>
</g>
<defs>
<clipPath id="clip0_0_1">
<rect width="3500" height="3500" fill="white"/>
</clipPath>
</defs>
</svg>
